<svg width="280" height="300" xmlns="http://www.w3.org/2000/svg" data-name="Layer 1">
 <title>JAVASCRIPT Logo</title>

 <g>
  <title>Layer 1</title>
  <polygon class="cls-1" points="200.1 98.56 140 98.56 140 98.56 79.9 98.56 91.16 220.76 140 234.6 140 234.6 140 234.6 140 234.6 140 234.6 188.82 220.76 200.1 98.56" fill="#e6a329" id="svg_1"/>
  <polygon class="cls-2" points="140 108.52 140 224.25 140 224.25 179.55 213.04 189.18 108.52 140 108.52" fill="#f1bf22" id="svg_2"/>
  <polygon class="cls-3" points="171.47 123.51 110.64 123.51 106.41 169.26 106.5 168.97 158.17 168.97 156.48 188.33 140 193.08 123.27 188.26 122.26 176.54 107.07 176.54 109.24 199.95 140 208.69 170.76 199.95 174.99 154.02 120.16 154.02 120.86 138.7 158.92 138.7 159.48 147.47 174.81 147.47 171.47 123.51" fill="#fff" id="svg_3"/>
  <path class="cls-4" d="m140,123.51l-29.37,0l-4.22,45.75l0.09,-0.28l33.5,0l0,-14.98l-17.72,0l0.7,-15.32l17,0l0.02,-15.17zm-17.74,53l-15.19,0l2.17,23.49l30.76,8.67l0,-15.59l-16.73,-4.82l-1.01,-11.75z" fill="#ebebeb" id="svg_4"/>
  <polygon class="cls-5" points="128.3000030517578,78.54000091552734 117.61000061035156,78.54000091552734 117.61000061035156,86.20999908447266 128.3000030517578,86.20999908447266 134.02999877929688,86.20999908447266 135.9600067138672,86.20999908447266 135.9600067138672,63.400001525878906 128.3000030517578,63.400001525878906 128.3000030517578,78.54000091552734 " fill="#ffffff" id="svg_5"/>
  <path class="cls-5" d="m162.39,65.51l-18.65,0l0,8c2.49,2.5 3.8,3.69 7.41,7.3l-7.41,0l0,7.28l18.65,0l0,-7.28l-7.45,-7.31l7.45,0l0,-7.99z" fill="#ffffff" id="svg_6"/>
 </g>
</svg>